<?xml version="1.0" encoding="UTF-8" standalone="no"?>
<svg
   xmlns:dc="http://purl.org/dc/elements/1.1/"
   xmlns:cc="http://creativecommons.org/ns#"
   xmlns:rdf="http://www.w3.org/1999/02/22-rdf-syntax-ns#"
   xmlns:svg="http://www.w3.org/2000/svg"
   xmlns="http://www.w3.org/2000/svg"
   viewBox="0 0 64 64"
   height="64"
   width="64"
   xml:space="preserve"
   id="svg2"
   version="1.1"><metadata
     id="metadata8"><rdf:RDF><cc:Work
         rdf:about=""><dc:format>image/svg+xml</dc:format><dc:type
           rdf:resource="http://purl.org/dc/dcmitype/StillImage" /></cc:Work></rdf:RDF></metadata><defs
     id="defs6" /><g
     transform="matrix(1.3333333,0,0,-1.3333333,0,64)"
     id="g10"><g
       transform="scale(0.1)"
       id="g12"><path
         id="path14"
         style="fill:#000000;fill-opacity:1;fill-rule:nonzero;stroke:none"
         d="M 187.422,343.98 H 376.02 c 4.41,0 7.96,3.598 7.96,8.008 0,4.422 -3.55,8.012 -7.96,8.012 H 187.422 c -4.41,0 -8.012,-3.59 -8.012,-8.012 0,-4.41 3.602,-8.008 8.012,-8.008 z" /><path
         id="path16"
         style="fill:#000000;fill-opacity:1;fill-rule:nonzero;stroke:none"
         d="M 187.422,223.98 H 376.02 c 4.41,0 7.96,3.598 7.96,8.008 0,4.422 -3.55,8.012 -7.96,8.012 H 187.422 c -4.41,0 -8.012,-3.59 -8.012,-8.012 0,-4.41 3.602,-8.008 8.012,-8.008 z" /><path
         id="path18"
         style="fill:#000000;fill-opacity:1;fill-rule:nonzero;stroke:none"
         d="M 187.422,103.98 H 376.02 c 4.41,0 7.96,3.598 7.96,8.008 0,4.422 -3.55,8.012 -7.96,8.012 H 187.422 c -4.41,0 -8.012,-3.59 -8.012,-8.012 0,-4.41 3.602,-8.008 8.012,-8.008 z" /><path
         id="path20"
         style="fill:#000000;fill-opacity:1;fill-rule:nonzero;stroke:none"
         d="M 471.988,480 H 8.01172 C 3.58984,480 0,476.41 0,471.988 V 8.01172 C 0,3.58984 3.58984,0 8.01172,0 H 471.988 C 476.41,0 480,3.58984 480,8.01172 V 471.988 c 0,4.422 -3.59,8.012 -8.012,8.012 z M 463.98,16.0195 H 16.0195 V 463.98 H 463.98 Z" /><path
         id="path22"
         style="fill:#000000;fill-opacity:1;fill-rule:nonzero;stroke:none"
         d="m 100,332.23 19.41,10.192 19.461,-10.192 -3.711,21.598 15.699,15.352 -21.718,3.121 -9.731,19.687 -9.68,-19.687 -21.7183,-3.121 15.6993,-15.352 z" /><path
         id="path24"
         style="fill:#000000;fill-opacity:1;fill-rule:nonzero;stroke:none"
         d="m 100,211.559 19.41,10.203 19.461,-10.203 -3.711,21.601 15.699,15.32 -21.718,3.161 -9.731,19.687 -9.68,-19.687 -21.7183,-3.161 15.6993,-15.32 z" /><path
         id="path26"
         style="fill:#000000;fill-opacity:1;fill-rule:nonzero;stroke:none"
         d="m 100,88.0117 19.41,10.1875 19.461,-10.1875 -3.711,21.6363 15.699,15.313 -21.718,3.16 -9.731,19.649 -9.68,-19.649 -21.7183,-3.16 15.6993,-15.313 z" /></g></g></svg>