<?xml version="1.0" encoding="UTF-8" standalone="no"?>
<svg
   xmlns:dc="http://purl.org/dc/elements/1.1/"
   xmlns:cc="http://creativecommons.org/ns#"
   xmlns:rdf="http://www.w3.org/1999/02/22-rdf-syntax-ns#"
   xmlns:svg="http://www.w3.org/2000/svg"
   xmlns="http://www.w3.org/2000/svg"
   viewBox="0 0 614.40002 682.66669"
   height="682.66669"
   width="614.40002"
   xml:space="preserve"
   id="svg2"
   version="1.1"><metadata
     id="metadata8"><rdf:RDF><cc:Work
         rdf:about=""><dc:format>image/svg+xml</dc:format><dc:type
           rdf:resource="http://purl.org/dc/dcmitype/StillImage" /></cc:Work></rdf:RDF></metadata><defs
     id="defs6" /><g
     transform="matrix(1.3333333,0,0,-1.3333333,0,682.66667)"
     id="g10"><g
       transform="scale(0.1)"
       id="g12"><path
         id="path14"
         style="fill:#131112;fill-opacity:1;fill-rule:nonzero;stroke:none"
         d="M 2218.67,2843.78 V 211.832 L 170.668,1038.89 v 2631.97 z m 2218.66,827.08 V 1038.89 l -2048,-827.058 V 2843.78 Z m 164.55,156.81 c -1.11,2.88 -2.68,5.35 -4.08,8.08 -3.23,6.29 -7.04,12.06 -11.71,17.36 -2.19,2.5 -4.3,4.83 -6.76,7.05 -5.49,4.97 -11.67,8.98 -18.42,12.42 -2.33,1.19 -4.3,2.75 -6.74,3.73 -0.72,0.29 -1.27,0.84 -2,1.11 l -990.75,365.21 c -44.09,16.25 -93.17,-6.34 -109.59,-50.59 -16.25,-44.2 6.34,-93.25 50.59,-109.58 L 4285.83,3793.71 2304,2993.37 322.168,3793.71 1105.58,4082.46 c 44.25,16.33 66.84,65.37 50.59,109.58 -16.42,44.29 -65.5,66.79 -109.59,50.59 L 55.832,3877.42 c -0.7343,-0.27 -1.2851,-0.82 -2.0078,-1.11 -2.4336,-0.97 -4.3945,-2.53 -6.7148,-3.72 -6.7539,-3.44 -12.9414,-7.46 -18.4414,-12.43 -2.4649,-2.23 -4.5703,-4.55 -6.7578,-7.04 -4.6719,-5.32 -8.4922,-11.09 -11.7227,-17.4 C 8.79297,3833 7.23047,3830.56 6.125,3827.68 2.59375,3818.5 0.167969,3808.84 0,3798.63 c -0.00390625,-0.27 0.105469,-0.5 0.105469,-0.77 C 0.105469,3797.67 0,3797.52 0,3797.33 V 981.332 c 0,-0.242 0.140625,-0.441 0.140625,-0.691 0.066406,-8.899 2.445315,-17.371 5.187505,-25.7 4.23046,-12.812 10.39067,-24.679 19.72267,-34 0.7734,-0.769 1.9531,-1.109 2.7617,-1.859 7.3828,-6.812 15.6523,-12.652 25.0898,-16.531 0.1993,-0.09 0.3165,-0.262 0.5157,-0.34 L 2270.66,6.78125 c 0.09,-0.03906 0.17,-0.07031 0.26,-0.10156 l 1.16,-0.46875 C 2282.33,2.08203 2293.17,0 2304,0 c 10.83,0 21.67,2.08203 31.92,6.21094 l 1.15,0.46875 c 0.1,0.03125 0.19,0.0625 0.28,0.10937 L 4554.58,902.211 c 0.2,0.078 0.32,0.25 0.51,0.34 9.45,3.89 17.73,9.719 25.12,16.551 0.8,0.73 1.97,1.078 2.74,1.839 9.42,9.411 15.6,21.43 19.81,34.399 2.66,8.211 5.03,16.539 5.1,25.301 0,0.25 0.14,0.449 0.14,0.691 V 3797.33 c 0,0.19 -0.1,0.34 -0.1,0.53 0,0.26 0.11,0.5 0.1,0.76 -0.17,10.22 -2.59,19.87 -6.12,29.05" /><path
         id="path16"
         style="fill:#131112;fill-opacity:1;fill-rule:nonzero;stroke:none"
         d="M 3048.67,4352 2304,3539.62 1559.33,4352 h 403.34 c 47.16,0 85.33,38.21 85.33,85.33 v 512 h 512 v -512 c 0,-47.12 38.17,-85.33 85.33,-85.33 z m -403.34,768 h -682.66 c -47.17,0 -85.34,-38.21 -85.34,-85.33 v -512 h -512 c -33.83,0 -64.5,-20 -78.08,-50.96 -13.67,-31 -7.67,-67.08 15.17,-92.04 l 938.66,-1024 c 16.17,-17.63 39,-27.67 62.92,-27.67 23.92,0 46.75,10.04 62.92,27.67 l 938.66,1024 c 22.84,24.96 28.84,61.04 15.17,92.04 -13.58,30.96 -44.25,50.96 -78.08,50.96 h -512 v 512 c 0,47.12 -38.17,85.33 -85.34,85.33" /></g></g></svg>