<?xml version="1.0" encoding="UTF-8" standalone="no"?>
<svg
   xmlns:dc="http://purl.org/dc/elements/1.1/"
   xmlns:cc="http://creativecommons.org/ns#"
   xmlns:rdf="http://www.w3.org/1999/02/22-rdf-syntax-ns#"
   xmlns:svg="http://www.w3.org/2000/svg"
   xmlns="http://www.w3.org/2000/svg"
   viewBox="0 0 490.56 490.56"
   height="490.56"
   width="490.56"
   xml:space="preserve"
   id="svg2"
   version="1.1"><metadata
     id="metadata8"><rdf:RDF><cc:Work
         rdf:about=""><dc:format>image/svg+xml</dc:format><dc:type
           rdf:resource="http://purl.org/dc/dcmitype/StillImage" /></cc:Work></rdf:RDF></metadata><defs
     id="defs6" /><g
     transform="matrix(1.3333333,0,0,-1.3333333,0,490.56)"
     id="g10"><g
       transform="scale(0.1)"
       id="g12"><path
         id="path14"
         style="fill:#131112;fill-opacity:1;fill-rule:nonzero;stroke:none"
         d="M 3300.1,3413.28 1736.18,1849.36 314.738,2395.52 Z M 2468.58,308.082 1850.98,1737.84 3424.02,3310.96 Z M 51.3789,2325.28 1695.94,1693.36 2406.58,48.2422 C 2419.3,18.8789 2448.26,0 2480.02,0 c 1.36,0 2.64,0 4,0.0820313 C 2517.38,1.76172 2546.1,23.9219 2556.26,55.6797 l 1120,3520.0003 c 0.8,2.48 0.56,5.04 1.04,7.6 0.96,4.48 1.68,8.8 1.84,13.36 0.16,4.48 -0.08,8.72 -0.64,13.12 -0.56,4.24 -1.2,8.32 -2.48,12.48 -1.36,4.56 -3.2,8.72 -5.28,12.96 -1.12,2.32 -1.52,4.8 -2.88,7.04 -0.88,1.44 -2.32,2.4 -3.36,3.76 -2.64,3.68 -5.76,6.88 -9.04,10.16 -3.28,3.28 -6.56,6.32 -10.32,8.96 -1.36,0.96 -2.24,2.32 -3.6,3.12 -2.24,1.36 -4.72,1.68 -7.04,2.8 -4.4,2.16 -8.72,4 -13.36,5.36 -3.92,1.04 -7.76,1.6 -11.76,2.08 -4.72,0.56 -9.28,0.88 -14,0.64 -4.4,-0.24 -8.64,-1.12 -12.96,-2.16 -2.72,-0.64 -5.52,-0.4 -8.24,-1.36 L 54.1797,2475.6 C 22.3398,2464.88 0.660156,2435.2 0.0195313,2401.52 -0.621094,2367.84 19.8594,2337.36 51.3789,2325.28" /><path
         id="path16"
         style="fill:#131112;fill-opacity:1;fill-rule:nonzero;stroke:none"
         d="M 80.0195,0 C 100.5,0 120.98,7.83984 136.578,23.4414 L 1256.58,1143.44 c 31.28,31.28 31.28,81.84 0,113.12 -31.28,31.28 -81.84,31.28 -113.12,0 L 23.4609,136.559 C -7.82031,105.281 -7.82031,54.7188 23.4609,23.4414 39.0586,7.83984 59.5391,0 80.0195,0" /><path
         id="path18"
         style="fill:#131112;fill-opacity:1;fill-rule:nonzero;stroke:none"
         d="m 1463.46,696.559 -559.999,-560 C 872.18,105.281 872.18,54.7188 903.461,23.4414 919.059,7.83984 939.539,0 960.02,0 c 20.48,0 40.96,7.83984 56.56,23.4414 l 560,559.9996 c 31.28,31.278 31.28,81.84 0,113.118 -31.28,31.281 -81.84,31.281 -113.12,0" /><path
         id="path20"
         style="fill:#131112;fill-opacity:1;fill-rule:nonzero;stroke:none"
         d="m 80.0195,880 c 20.4805,0 40.9605,7.84 56.5585,23.441 l 560,559.999 c 31.281,31.28 31.281,81.84 0,113.12 -31.277,31.28 -81.84,31.28 -113.117,0 l -560.0001,-560 c -31.28121,-31.279 -31.28121,-81.841 0,-113.119 C 39.0586,887.84 59.5391,880 80.0195,880" /></g></g></svg>