<?xml version="1.0" encoding="UTF-8" standalone="no"?>
<svg
   xmlns:dc="http://purl.org/dc/elements/1.1/"
   xmlns:cc="http://creativecommons.org/ns#"
   xmlns:rdf="http://www.w3.org/1999/02/22-rdf-syntax-ns#"
   xmlns:svg="http://www.w3.org/2000/svg"
   xmlns="http://www.w3.org/2000/svg"
   viewBox="0 0 53.333332 54.666668"
   height="54.666668"
   width="53.333332"
   xml:space="preserve"
   id="svg2"
   version="1.1"><metadata
     id="metadata8"><rdf:RDF><cc:Work
         rdf:about=""><dc:format>image/svg+xml</dc:format><dc:type
           rdf:resource="http://purl.org/dc/dcmitype/StillImage" /></cc:Work></rdf:RDF></metadata><defs
     id="defs6"><clipPath
       id="clipPath20"
       clipPathUnits="userSpaceOnUse"><path
         id="path18"
         d="m 0,7.21875 h 400 v 400 H 0 Z" /></clipPath></defs><g
     transform="matrix(1.3333333,0,0,-1.3333333,0,54.666667)"
     id="g10"><g
       transform="scale(0.1)"
       id="g12"><g
         id="g14"><g
           clip-path="url(#clipPath20)"
           id="g16"><path
             id="path22"
             style="fill:#FFFFFF;fill-opacity:1;fill-rule:nonzero;stroke:none"
             d="M 198.59,407.219 C 89.1016,407.219 0,318.109 0,208.621 0,99.0898 89.1016,9.98828 198.59,9.98828 c 109.531,0 198.64,89.10152 198.64,198.63272 0,109.488 -89.109,198.598 -198.64,198.598 z m 88.64,-153.168 c 0.071,-1.949 0.11,-3.942 0.11,-5.942 0,-60.39 -45.969,-130.031 -130.07,-130.031 -25.821,0 -49.848,7.531 -70.0786,20.543 3.5899,-0.43 7.2188,-0.66 10.8984,-0.66 21.4412,0 41.1292,7.301 56.7892,19.57 -20,0.391 -36.867,13.59 -42.688,31.758 2.77,-0.551 5.618,-0.82 8.59,-0.82 4.141,0 8.199,0.543 12.028,1.601 -20.899,4.18 -36.6801,22.649 -36.6801,44.801 0,0.199 0,0.391 0.043,0.59 6.1291,-3.441 13.2071,-5.473 20.7071,-5.699 -12.27,8.16 -20.3595,22.179 -20.3595,38.039 0,8.359 2.2696,16.211 6.1795,22.969 22.531,-27.661 56.25,-45.86 94.211,-47.77 -0.781,3.359 -1.172,6.828 -1.172,10.43 0,25.23 20.473,45.699 45.711,45.699 13.16,0 25.031,-5.551 33.352,-14.41 10.429,2.031 20.238,5.82 29.07,11.09 -3.441,-10.7 -10.672,-19.649 -20.121,-25.309 9.262,1.09 18.09,3.551 26.25,7.18 -6.09,-9.141 -13.871,-17.18 -22.77,-23.629 z" /></g></g></g></g></svg>